<svg xmlns="http://www.w3.org/2000/svg" version="1.1" viewBox="-5.0 -10.0 110.0 135.0">
 <path d="m34.707 24.301c1.0664-1.5312 2.3359-2.8828 3.7734-4.0195 0.41016-0.32422 0.48047-0.92188 0.15625-1.332-0.32422-0.41016-0.92188-0.48047-1.332-0.15625-1.5859 1.25-2.9805 2.7383-4.1562 4.4258-0.30078 0.42969-0.19531 1.0195 0.23437 1.3203 0.43359 0.29688 1.0234 0.19531 1.3242-0.23828z"/>
 <path d="m41.777 52.629c0.24219-0.46484 0.0625-1.0391-0.39844-1.2812-2.7266-1.4258-5.0742-3.5273-6.7969-6.082-0.29297-0.43359-0.88281-0.55078-1.3164-0.25781-0.43359 0.29297-0.55078 0.88281-0.25781 1.3164 1.8945 2.8164 4.4844 5.1328 7.4883 6.7031 0.46875 0.24609 1.0391 0.066406 1.2812-0.39844z"/>
 <path d="m62.699 18.797c-0.41406-0.32812-1.0078-0.25781-1.332 0.15234-0.32813 0.41016-0.25781 1.0078 0.15234 1.332 1.4766 1.1719 2.7422 2.5273 3.7617 4.0234 0.29688 0.4375 0.89062 0.54297 1.3164 0.25 0.43359-0.29297 0.54688-0.88281 0.25-1.3164-1.1211-1.6562-2.5195-3.1484-4.1484-4.4414z"/>
 <path d="m65.422 45.266c-1.7305 2.5547-4.082 4.6562-6.7969 6.0742-0.46484 0.24219-0.64453 0.81641-0.39844 1.2812 0.24219 0.46094 0.8125 0.64453 1.2812 0.40234 2.9922-1.5664 5.582-3.8789 7.4883-6.6914 0.29297-0.43359 0.17969-1.0234-0.25391-1.3164-0.43359-0.29688-1.0234-0.18359-1.3203 0.25z"/>
 <path d="m75.527 46.289c0.25391-0.066406 0.46875-0.23437 0.59375-0.46484 1.8516-3.3984 5.1523-6.8711 9.8164-10.316 0.24219-0.17969 0.38281-0.46094 0.38281-0.76172 0-0.30078-0.14453-0.58594-0.38672-0.76172-4.6602-3.4336-7.9609-6.8984-9.8125-10.305-0.125-0.23047-0.33984-0.39844-0.59375-0.46484s-0.52344-0.023438-0.74609 0.11719c-12.602 7.9648-17.418 5.8828-19.586 6.1523 0.089844-4.5 2.1328-9.8555 6.2266-16.332 0.14062-0.22266 0.17969-0.49219 0.11719-0.74609-0.066406-0.25391-0.23437-0.46875-0.46484-0.59375-3.4141-1.8477-6.8828-5.1484-10.312-9.8125-0.35938-0.48828-1.1719-0.48828-1.5273 0-3.4297 4.6602-6.8984 7.9609-10.312 9.8125-0.23047 0.125-0.39844 0.33984-0.46484 0.59375-0.066406 0.25391-0.023437 0.52344 0.11719 0.74609 4.0938 6.4609 6.1367 11.816 6.2266 16.328-2.1797-0.26953-6.9766 1.8047-19.586-6.1523-0.22266-0.14062-0.49219-0.17969-0.74609-0.11719-0.25391 0.066406-0.46875 0.23437-0.59375 0.46484-1.8438 3.4023-5.1445 6.8672-9.8125 10.301-0.24219 0.17969-0.38672 0.46094-0.38672 0.76563 0 0.30078 0.14062 0.58594 0.38672 0.76562 4.6719 3.4453 7.9727 6.9141 9.8125 10.312 0.125 0.23047 0.33984 0.39844 0.59375 0.46484s0.52344 0.023438 0.74609-0.11719c12.586-7.9453 17.41-5.8906 19.52-6.1523l0.003906 28.684c0.48828 4.8711-1.5312 10.805-6.1641 18.133-0.14062 0.22266-0.18359 0.49219-0.11719 0.74609 0.066407 0.25391 0.23438 0.46875 0.46484 0.59375 3.4102 1.8438 6.8789 5.1445 10.312 9.8008 0.17969 0.24219 0.46094 0.38672 0.76172 0.38672 0.30078 0 0.58594-0.14453 0.76172-0.38672 3.4336-4.6602 6.9023-7.957 10.312-9.8008 0.23047-0.125 0.39844-0.33984 0.46484-0.59375s0.023438-0.52344-0.11719-0.74609c-4.6367-7.332-6.6523-13.262-6.1562-18.133 0.003906-0.03125 0.003906-0.0625 0.003906-0.097657l0.007813-28.582c1.7148 0.25391 7.5352-1.4141 19.508 6.1523 0.22266 0.14062 0.49219 0.17969 0.74609 0.11719zm-21.203-8.168c-0.52344 0-0.94922 0.42578-0.94922 0.94922v29.492c-0.51172 5.1758 1.375 11.059 5.9219 18.449-3.1094 1.8828-6.2305 4.8477-9.2969 8.8281-3.0703-3.9844-6.1875-6.9453-9.2969-8.8281 4.5586-7.4102 6.4453-13.305 5.9297-18.402v-29.539c0-0.52344-0.42578-0.94922-0.94922-0.94922-3.1172 0.32422-7.8828-1.9141-20.641 5.9219-1.8789-3.1016-4.8477-6.2227-8.8398-9.2969 3.9922-3.0703 6.957-6.1875 8.8398-9.2891 12.758 7.8359 17.574 5.5977 20.695 5.9219 0.50781 0 0.92578-0.40234 0.94922-0.91016 0.19531-4.8984-1.7617-10.629-5.9883-17.492 3.1133-1.8867 6.2344-4.8516 9.2969-8.8359 3.0664 3.9844 6.1875 6.9492 9.2969 8.8398-4.2812 6.9609-6.1875 12.535-5.9883 17.492 0.019531 0.50781 0.4375 0.91016 0.94922 0.91016 3.1719-0.32812 7.9414 1.918 20.699-5.9219 1.8906 3.1055 4.8555 6.2227 8.8398 9.293-3.9844 3.0781-6.9531 6.1992-8.8398 9.3008-12.766-7.8594-17.625-5.6211-20.629-5.9336z"/>
<text x="0.0" y="117.5" font-size="5.0" font-weight="bold" font-family="Arbeit Regular, Helvetica, Arial-Unicode, Arial, Sans-serif" fill="#000000">Created by Icons Field</text><text x="0.0" y="122.5" font-size="5.0" font-weight="bold" font-family="Arbeit Regular, Helvetica, Arial-Unicode, Arial, Sans-serif" fill="#000000">from Noun Project</text></svg>