<!DOCTYPE svg PUBLIC "-//W3C//DTD SVG 1.1//EN" "http://www.w3.org/Graphics/SVG/1.1/DTD/svg11.dtd">
<!-- Uploaded to: SVG Repo, www.svgrepo.com, Transformed by: SVG Repo Mixer Tools -->
<svg fill="#8f3337" height="800px" width="800px" version="1.1" id="Layer_1" xmlns="http://www.w3.org/2000/svg" xmlns:xlink="http://www.w3.org/1999/xlink" viewBox="0 0 512 512" xml:space="preserve">
<g id="SVGRepo_bgCarrier" stroke-width="0"/>
<g id="SVGRepo_tracerCarrier" stroke-linecap="round" stroke-linejoin="round"/>
<g id="SVGRepo_iconCarrier"> <g> <g> <path d="M173.921,182.078c-5.973-4.206-10.956-9.477-14.815-15.668c-1.542-2.474-4.25-3.977-7.163-3.977h-18.745 c-4.661,0-8.44,3.779-8.44,8.44c0,4.661,3.779,8.44,8.44,8.44h14.246c2.507,3.483,5.308,6.713,8.389,9.673 c-2.694,2.593-5.177,5.394-7.438,8.39H94.612v-18.063h10.453v-0.001c4.661,0,8.44-3.779,8.44-8.44c0-4.661-3.779-8.44-8.44-8.44 H86.171c-4.661,0-8.44,3.779-8.44,8.44v34.944c0,4.661,3.779,8.44,8.44,8.44h66.597c2.841,0,5.491-1.429,7.052-3.803 c3.763-5.721,8.511-10.627,14.11-14.581c2.242-1.582,3.574-4.156,3.572-6.9C177.501,186.23,176.165,183.657,173.921,182.078z"/> </g> </g> <g> <g> <path d="M278.056,285.138c-5.976-3.859-11.065-8.779-15.126-14.623c-1.578-2.27-4.166-3.623-6.93-3.624 c-2.764,0-5.352,1.353-6.93,3.622c-4.058,5.836-9.144,10.751-15.115,14.609c-2.407,1.554-3.861,4.224-3.861,7.09v177.59 c0,4.661,3.779,8.44,8.44,8.44h34.944c4.661,0,8.44-3.779,8.44-8.44V292.228C281.917,289.362,280.463,286.692,278.056,285.138z M265.038,461.36h-18.063V296.625h-0.001c3.239-2.406,6.253-5.07,9.023-7.976c2.775,2.913,5.795,5.583,9.04,7.994V461.36z"/> </g> </g> <g> <g> <path d="M425.828,162.431h-65.773c-2.914,0-5.622,1.503-7.163,3.977c-3.859,6.191-8.842,11.463-14.814,15.668 c-2.244,1.58-3.58,4.152-3.581,6.896c-0.001,2.744,1.331,5.318,3.572,6.9c5.6,3.955,10.347,8.859,14.109,14.581 c1.561,2.373,4.211,3.803,7.053,3.803h66.597c4.661,0,8.44-3.779,8.44-8.44v-34.944 C434.268,166.21,430.489,162.431,425.828,162.431z M417.387,197.376h-53.784c-2.261-2.996-4.744-5.797-7.438-8.39 c3.079-2.96,5.88-6.191,8.388-9.673h52.834V197.376z"/> </g> </g> <g> <g> <path d="M273.477,33.764h-34.944c-4.661,0-8.44,3.779-8.44,8.44V85.68c0,2.865,1.454,5.535,3.86,7.09 c5.973,3.858,11.059,8.775,15.119,14.614c1.577,2.271,4.165,3.624,6.929,3.624c2.765,0,5.352-1.353,6.93-3.622 c4.06-5.839,9.148-10.753,15.123-14.61c2.408-1.554,3.863-4.225,3.863-7.091V42.205C281.917,37.543,278.138,33.764,273.477,33.764 z M265.036,81.268c-3.243,2.407-6.259,5.073-9.034,7.982c-2.773-2.91-5.788-5.576-9.029-7.985V50.645h18.063V81.268z"/> </g> </g> <g> <g> <path d="M459.584,128.667h-47.942c-12.774-35.543-37.416-65.736-69.933-85.476c-3.986-2.419-9.177-1.149-11.595,2.835 c-2.419,3.985-1.149,9.177,2.835,11.595c27.448,16.664,48.648,41.614,60.622,71.045h-16.349 c-12.738-27.62-34.312-49.864-61.542-63.457V8.44c0-4.661-3.779-8.44-8.44-8.44H204.771c-4.661,0-8.44,3.779-8.44,8.44v21.949 c-44.539,17.252-79.803,53.37-95.967,98.278H52.415c-4.661,0-8.44,3.779-8.44,8.44v102.468c0,4.661,3.779,8.44,8.44,8.44h50.796 c17.351,41.897,50.833,74.585,93.12,90.92V503.56c0,4.661,3.779,8.44,8.44,8.44h102.468c4.661,0,8.44-3.779,8.44-8.44v-39.148 c0-4.661-3.779-8.44-8.44-8.44c-4.661,0-8.44,3.779-8.44,8.44v30.708h-85.587V275.866c16.353-3.807,28.574-18.503,28.574-35.998 c0-20.373-16.579-36.947-36.958-36.947c-17.301,0-31.948,12.061-35.892,28.214H60.855v-85.587H168.65 c3.487,16.78,18.382,29.429,36.177,29.429c20.379,0,36.958-16.579,36.958-36.958c0-17.477-12.203-32.161-28.574-35.98V70.355 c0-0.002,0-0.005,0-0.007V16.881h85.587v85.148c-16.36,3.802-28.585,18.496-28.585,35.99c0,20.379,16.579,36.958,36.958,36.958 c17.794,0,32.691-12.649,36.177-29.429h107.796v85.587h-108.08c-3.945-16.153-18.593-28.214-35.892-28.214 c-20.379,0-36.958,16.575-36.958,36.947c0,17.484,12.205,32.172,28.585,35.991v153.105c0,4.661,3.779,8.44,8.44,8.44 c4.661,0,8.44-3.779,8.44-8.44v-90.039c42.278-16.323,75.755-49.007,93.109-90.911h50.796c4.661,0,8.44-3.779,8.44-8.44V137.106 C468.025,132.446,464.245,128.667,459.584,128.667z M176.332,248.015c4.631,0,8.397-3.731,8.44-8.362 c0.102-10.947,9.099-19.852,20.055-19.852c11.071,0,20.077,9.002,20.077,20.066c0,11.071-9.007,20.077-20.133,20.077 c-4.661,0-8.44,3.779-8.44,8.44v16.465c-15.382-9.173-28.487-21.797-38.233-36.834H176.332z M138.48,248.015 c13.046,24.17,33.308,43.816,57.851,56.085v16.592c-32.942-14.419-59.373-40.14-74.681-72.677H138.48z M118.44,128.666 c14.532-35.635,42.647-64.513,77.891-80.017v16.56c-27.236,13.59-48.813,35.836-61.552,63.457H118.44z M224.905,138.019 c0,11.071-9.007,20.077-20.077,20.077c-11.065,0-20.066-9.007-20.066-20.077c0-0.111-0.002-0.222,0-0.287 c0.173-2.341-0.635-4.648-2.233-6.367c-1.597-1.72-3.838-2.696-6.185-2.696h-22.656c10.01-18.336,24.681-33.542,42.644-44.212 v25.057c0,4.661,3.835,8.44,8.497,8.44C215.898,117.953,224.905,126.955,224.905,138.019z M335.655,128.667 c-2.346,0-4.589,0.955-6.186,2.674c-1.597,1.72-2.407,4.005-2.234,6.345c0.005,0.111,0.002,0.222,0.002,0.332 c0,11.07-9.002,20.077-20.066,20.077c-11.071,0-20.077-9.007-20.077-20.077c0-11.065,9.007-20.066,20.145-20.066 c4.661,0,8.44-3.779,8.44-8.44V84.457c17.957,10.671,32.624,25.876,42.633,44.21H335.655z M307.171,259.945 c-11.07,0-20.077-9.007-20.077-20.077c0-11.065,9.007-20.066,20.077-20.066c10.956,0,19.952,8.906,20.056,19.852 c0.044,4.631,3.809,8.362,8.44,8.362h18.234c-9.743,15.031-22.842,27.652-38.222,36.83v-16.46 C315.679,263.724,311.833,259.945,307.171,259.945z M315.679,320.685V304.1c24.542-12.278,44.8-31.923,57.84-56.083h16.83 C375.041,280.556,348.613,306.276,315.679,320.685z"/> </g> </g> </g>
</svg>